<svg xmlns="http://www.w3.org/2000/svg" width="900" height="540" viewBox="0 0 900 540" fill="none">
  <defs>
    <linearGradient id="bg" x1="0" y1="0" x2="900" y2="540" gradientUnits="userSpaceOnUse">
      <stop stop-color="#0B1220"/>
      <stop offset="1" stop-color="#0E1730"/>
    </linearGradient>
    <linearGradient id="cell" x1="220" y1="190" x2="690" y2="410" gradientUnits="userSpaceOnUse">
      <stop stop-color="rgba(124,92,255,0.6)"/>
      <stop offset="1" stop-color="rgba(52,211,153,0.6)"/>
    </linearGradient>
  </defs>
  <rect width="900" height="540" rx="28" fill="url(#bg)"/>
  <rect x="52" y="54" width="796" height="432" rx="18" fill="rgba(255,255,255,0.04)" stroke="rgba(255,255,255,0.12)"/>
  <text x="80" y="110" fill="rgba(255,255,255,0.86)" font-family="Inter, Arial" font-size="22" font-weight="700">Segment Heatmap (placeholder)</text>
  <g transform="translate(160 170)">
    <rect x="0" y="0" width="580" height="280" rx="16" fill="rgba(255,255,255,0.03)" stroke="rgba(255,255,255,0.10)"/>
    <g transform="translate(26 26)">
      <g opacity="0.95">
        <rect x="0" y="0" width="98" height="70" rx="12" fill="rgba(255,255,255,0.05)"/>
        <rect x="110" y="0" width="98" height="70" rx="12" fill="rgba(124,92,255,0.18)"/>
        <rect x="220" y="0" width="98" height="70" rx="12" fill="rgba(52,211,153,0.16)"/>
        <rect x="330" y="0" width="98" height="70" rx="12" fill="url(#cell)"/>
        <rect x="440" y="0" width="98" height="70" rx="12" fill="rgba(255,255,255,0.05)"/>

        <rect x="0" y="84" width="98" height="70" rx="12" fill="rgba(124,92,255,0.12)"/>
        <rect x="110" y="84" width="98" height="70" rx="12" fill="rgba(255,255,255,0.05)"/>
        <rect x="220" y="84" width="98" height="70" rx="12" fill="rgba(255,255,255,0.05)"/>
        <rect x="330" y="84" width="98" height="70" rx="12" fill="rgba(52,211,153,0.18)"/>
        <rect x="440" y="84" width="98" height="70" rx="12" fill="rgba(124,92,255,0.22)"/>

        <rect x="0" y="168" width="98" height="70" rx="12" fill="rgba(255,255,255,0.05)"/>
        <rect x="110" y="168" width="98" height="70" rx="12" fill="rgba(52,211,153,0.14)"/>
        <rect x="220" y="168" width="98" height="70" rx="12" fill="rgba(124,92,255,0.20)"/>
        <rect x="330" y="168" width="98" height="70" rx="12" fill="rgba(255,255,255,0.05)"/>
        <rect x="440" y="168" width="98" height="70" rx="12" fill="url(#cell)"/>
      </g>
    </g>
  </g>
</svg>

