<svg xmlns="http://www.w3.org/2000/svg" width="900" height="540" viewBox="0 0 900 540" fill="none">
  <defs>
    <linearGradient id="bg" x1="0" y1="0" x2="900" y2="540" gradientUnits="userSpaceOnUse">
      <stop stop-color="#0B1220"/>
      <stop offset="1" stop-color="#0E1730"/>
    </linearGradient>
    <linearGradient id="acc" x1="260" y1="210" x2="640" y2="340" gradientUnits="userSpaceOnUse">
      <stop stop-color="#7C5CFF"/>
      <stop offset="1" stop-color="#34D399"/>
    </linearGradient>
  </defs>
  <rect width="900" height="540" rx="28" fill="url(#bg)"/>
  <rect x="52" y="54" width="796" height="432" rx="18" fill="rgba(255,255,255,0.04)" stroke="rgba(255,255,255,0.12)"/>
  <text x="80" y="110" fill="rgba(255,255,255,0.86)" font-family="Inter, Arial" font-size="22" font-weight="700">Distribution & Outliers (placeholder)</text>
  <g transform="translate(180 170)">
    <rect x="0" y="0" width="540" height="300" rx="18" fill="rgba(0,0,0,0.18)" stroke="rgba(255,255,255,0.10)"/>
    <g transform="translate(90 70)" stroke-linecap="round">
      <line x1="80" y1="60" x2="80" y2="200" stroke="rgba(255,255,255,0.22)" stroke-width="6"/>
      <rect x="40" y="90" width="80" height="80" rx="12" fill="url(#acc)" stroke="rgba(255,255,255,0.12)"/>
      <line x1="40" y1="130" x2="120" y2="130" stroke="rgba(11,18,32,0.85)" stroke-width="6"/>
      <circle cx="80" cy="35" r="7" fill="rgba(255,255,255,0.72)"/>

      <line x1="260" y1="50" x2="260" y2="220" stroke="rgba(255,255,255,0.22)" stroke-width="6"/>
      <rect x="220" y="100" width="80" height="70" rx="12" fill="rgba(255,255,255,0.06)" stroke="rgba(255,255,255,0.12)"/>
      <line x1="220" y1="135" x2="300" y2="135" stroke="rgba(255,255,255,0.55)" stroke-width="6"/>
      <circle cx="260" cy="240" r="7" fill="rgba(255,255,255,0.40)"/>
    </g>
  </g>
</svg>

