<svg xmlns="http://www.w3.org/2000/svg" width="900" height="540" viewBox="0 0 900 540" fill="none">
  <defs>
    <linearGradient id="bg" x1="0" y1="0" x2="900" y2="540" gradientUnits="userSpaceOnUse">
      <stop stop-color="#0B1220"/>
      <stop offset="1" stop-color="#0E1730"/>
    </linearGradient>
    <linearGradient id="acc" x1="160" y1="160" x2="740" y2="420" gradientUnits="userSpaceOnUse">
      <stop stop-color="#7C5CFF"/>
      <stop offset="1" stop-color="#34D399"/>
    </linearGradient>
  </defs>
  <rect width="900" height="540" rx="28" fill="url(#bg)"/>
  <rect x="52" y="54" width="796" height="432" rx="18" fill="rgba(255,255,255,0.04)" stroke="rgba(255,255,255,0.12)"/>
  <text x="80" y="110" fill="rgba(255,255,255,0.86)" font-family="Inter, Arial" font-size="22" font-weight="700">Hiring Hotspots (placeholder)</text>
  <g transform="translate(150 160)">
    <rect x="0" y="0" width="600" height="300" rx="18" fill="rgba(0,0,0,0.18)" stroke="rgba(255,255,255,0.10)"/>
    <path d="M80 220 C 120 120, 240 80, 310 110 C 380 140, 430 90, 520 130 C 560 150, 560 240, 500 250 C 420 264, 360 240, 300 250 C 210 268, 130 300, 80 220 Z"
      fill="rgba(255,255,255,0.05)" stroke="rgba(255,255,255,0.10)"/>
    <circle cx="210" cy="175" r="10" fill="url(#acc)"/>
    <circle cx="320" cy="160" r="7" fill="rgba(124,92,255,0.65)"/>
    <circle cx="430" cy="190" r="9" fill="rgba(52,211,153,0.65)"/>
    <circle cx="370" cy="230" r="6" fill="rgba(255,255,255,0.55)"/>
  </g>
</svg>

